<svg width="30" height="30" viewBox="0 0 30 30" fill="none" xmlns="http://www.w3.org/2000/svg">
<g clip-path="url(#clip0_81_50)">
<path d="M28.9872 28.2805C28.9777 28.5484 28.9639 28.7904 28.9488 29H1.05118C1.03613 28.7904 1.02227 28.5484 1.01278 28.2805C0.978206 27.3044 1.00251 26.0073 1.22845 24.6883C1.69027 21.9924 2.89802 19.6057 5.72002 19.111C7.3136 18.8316 8.55031 19.1189 9.9458 19.53C10.0944 19.5738 10.2455 19.6193 10.3993 19.6656C11.6834 20.0521 13.1582 20.4961 15 20.4961C16.8418 20.4961 18.3166 20.0521 19.6007 19.6656C19.7545 19.6193 19.9056 19.5738 20.0542 19.53C21.4497 19.1189 22.6864 18.8316 24.28 19.111C27.102 19.6057 28.3097 21.9924 28.7715 24.6883C28.9975 26.0073 29.0218 27.3044 28.9872 28.2805Z" stroke="#252525" stroke-width="2"/>
<circle cx="15" cy="8" r="7" stroke="#252525" stroke-width="2"/>
</g>
<defs>
<clipPath id="clip0_81_50">
<rect width="30" height="30" fill="white"/>
</clipPath>
</defs>
</svg>
