<svg viewBox="0 0 24 24" fill="none" xmlns="http://www.w3.org/2000/svg">
    <g clip-path="url(#clip0_17_24)">
        <path fill-rule="evenodd" clip-rule="evenodd" d="M23 8C22.4477 8 22 7.55228 22 7V3.19238L15.7071 9.48527C15.3166 9.8758 14.6834 9.8758 14.2929 9.48527C13.9024 9.09475 13.9024 8.46159 14.2929 8.07106L20.364 2H17C16.4477 2 16 1.55228 16 1C16 0.447715 16.4477 0 17 0H23C23.5523 0 24 0.447715 24 1V7C24 7.55228 23.5523 8 23 8Z" fill="currentColor"/>
        <path fill-rule="evenodd" clip-rule="evenodd" d="M1 15.7782C1.55229 15.7782 2 16.2259 2 16.7782L2 20.5858L8.29289 14.2929C8.68342 13.9024 9.31658 13.9024 9.70711 14.2929C10.0976 14.6834 10.0976 15.3166 9.70711 15.7071L3.63605 21.7782H7C7.55228 21.7782 8 22.2259 8 22.7782C8 23.3305 7.55228 23.7782 7 23.7782H1C0.447715 23.7782 1.86265e-09 23.3305 1.86265e-09 22.7782V16.7782C1.86265e-09 16.2259 0.447715 15.7782 1 15.7782Z" fill="currentColor"/>
    </g>
    <defs>
        <clipPath id="clip0_17_24">
            <rect width="24" height="24" fill="none"/>
        </clipPath>
    </defs>
</svg>
