<svg viewBox="0 0 30 30" display="none" xmlns="http://www.w3.org/2000/svg" xmlns:xlink="http://www.w3.org/1999/xlink">
    <symbol id="cancel">
        <line x1="1.29289" y1="28.2929" x2="28.2929" y2="1.29289" stroke="#252525" stroke-width="2"/>
        <line x1="28.2929" y1="28.7071" x2="1.29289" y2="1.70711" stroke="currentColor" stroke-width="2"/>
    </symbol>
    <symbol id="cart">
        <line x1="2" y1="8" x2="28" y2="8" stroke="currentColor" stroke-width="2" stroke-linecap="square"/>
        <path d="M2 7V28H28V7" stroke="currentColor" stroke-width="2"/>
        <path d="M7 7V5C7 3.34315 8.34315 2 10 2H20C21.6569 2 23 3.34315 23 5V7" stroke="currentColor" stroke-width="2"/>
    </symbol>
    <symbol id="heart">
        <path d="M15 28.2956L13.3222 26.6309L13.3215 26.6302C9.70734 23.0582 6.74543 20.1266 4.68126 17.3741C2.62355 14.6303 1.5 12.1178 1.5 9.39237C1.5 4.91275 4.70323 1.5 8.7 1.5C10.9681 1.5 13.1666 2.65372 14.6072 4.48318L15 4.98203L15.3928 4.48318C16.8334 2.65372 19.0319 1.5 21.3 1.5C25.2968 1.5 28.5 4.91275 28.5 9.39237C28.5 12.1178 27.3764 14.6303 25.3187 17.3741C23.2546 20.1266 20.2927 23.0582 16.6785 26.6302L16.6778 26.6309L15 28.2956Z" stroke="#252525"/>
    </symbol>
    <symbol id="search">
        <circle cx="12" cy="12" r="10" stroke="currentColor" fill="currentColor" stroke-width="2"/>
        <path d="M27 28L19 20" stroke="currentColor" fill="currentColor" stroke-width="2" stroke-linecap="square"/>
    </symbol>
    <symbol id="user">
        <g clip-path="url(#clip0_81_50)">
            <path d="M28.9872 28.2805C28.9777 28.5484 28.9639 28.7904 28.9488 29H1.05118C1.03613 28.7904 1.02227 28.5484 1.01278 28.2805C0.978206 27.3044 1.00251 26.0073 1.22845 24.6883C1.69027 21.9924 2.89802 19.6057 5.72002 19.111C7.3136 18.8316 8.55031 19.1189 9.9458 19.53C10.0944 19.5738 10.2455 19.6193 10.3993 19.6656C11.6834 20.0521 13.1582 20.4961 15 20.4961C16.8418 20.4961 18.3166 20.0521 19.6007 19.6656C19.7545 19.6193 19.9056 19.5738 20.0542 19.53C21.4497 19.1189 22.6864 18.8316 24.28 19.111C27.102 19.6057 28.3097 21.9924 28.7715 24.6883C28.9975 26.0073 29.0218 27.3044 28.9872 28.2805Z" stroke="#252525" stroke-width="2"/>
            <circle cx="15" cy="8" r="7" stroke="#252525" stroke-width="2"/>
        </g>
        <defs>
            <clipPath id="clip0_81_50">
                <rect width="30" height="30" fill="white"/>
            </clipPath>
        </defs>
    </symbol>
</svg>