<svg style="display:none;" aria-hidden="true" version="1.1" xmlns="http://www.w3.org/2000/svg" xmlns:xlink="http://www.w3.org/1999/xlink">
    <symbol id="logo" viewBox="0 0 67 23" fill="none">
        <path d="M12.1597 22.36C10.4997 22.36 8.95973 22.09 7.53973 21.55C6.13973 21.01 4.91973 20.25 3.87973 19.27C2.85973 18.29 2.05973 17.14 1.47973 15.82C0.919727 14.5 0.639727 13.06 0.639727 11.5C0.639727 9.94 0.919727 8.5 1.47973 7.18C2.05973 5.86 2.86973 4.71 3.90973 3.73C4.94973 2.75 6.16973 1.99 7.56973 1.45C8.96973 0.909999 10.4897 0.64 12.1297 0.64C13.7897 0.64 15.3097 0.909999 16.6897 1.45C18.0897 1.99 19.2997 2.75 20.3197 3.73C21.3597 4.71 22.1697 5.86 22.7497 7.18C23.3297 8.48 23.6197 9.92 23.6197 11.5C23.6197 13.06 23.3297 14.51 22.7497 15.85C22.1697 17.17 21.3597 18.32 20.3197 19.3C19.2997 20.26 18.0897 21.01 16.6897 21.55C15.3097 22.09 13.7997 22.36 12.1597 22.36ZM12.1297 18.22C13.0697 18.22 13.9297 18.06 14.7097 17.74C15.5097 17.42 16.2097 16.96 16.8097 16.36C17.4097 15.76 17.8697 15.05 18.1897 14.23C18.5297 13.41 18.6997 12.5 18.6997 11.5C18.6997 10.5 18.5297 9.59 18.1897 8.77C17.8697 7.95 17.4097 7.24 16.8097 6.64C16.2297 6.04 15.5397 5.58 14.7397 5.26C13.9397 4.94 13.0697 4.78 12.1297 4.78C11.1897 4.78 10.3197 4.94 9.51973 5.26C8.73973 5.58 8.04973 6.04 7.44973 6.64C6.84973 7.24 6.37973 7.95 6.03973 8.77C5.71973 9.59 5.55973 10.5 5.55973 11.5C5.55973 12.48 5.71973 13.39 6.03973 14.23C6.37973 15.05 6.83973 15.76 7.41973 16.36C8.01973 16.96 8.71973 17.42 9.51973 17.74C10.3197 18.06 11.1897 18.22 12.1297 18.22ZM24.1105 22L33.1405 9.55V13.09L24.5005 0.999999H30.0205L35.9905 9.43L33.6805 9.46L39.5605 0.999999H44.8405L36.2605 12.88V9.4L45.3505 22H39.7405L33.5605 13.09H35.7805L29.6905 22H24.1105ZM45.2043 22L54.2343 9.55V13.09L45.5943 0.999999H51.1143L57.0843 9.43L54.7743 9.46L60.6543 0.999999H65.9343L57.3543 12.88V9.4L66.4443 22H60.8343L54.6543 13.09H56.8743L50.7843 22H45.2043Z" fill="#252525"/>
    </symbol>
    <symbol id="cancel" viewBox="0 0 30 30">
        <line x1="1.29289" y1="28.2929" x2="28.2929" y2="1.29289" stroke="#252525" stroke-width="2" fill="transparent"/>
        <line x1="28.2929" y1="28.7071" x2="1.29289" y2="1.70711" stroke="#252525" stroke-width="2" fill="transparent"/>
    </symbol>
    <symbol id="cart" viewBox="0 0 30 30">
        <line x1="2" y1="8" x2="28" y2="8" stroke="#252525" stroke-width="2" stroke-linecap="square" fill="transparent"/>
        <path d="M2 7V28H28V7" stroke="#252525" stroke-width="2" fill="transparent"/>
        <path d="M7 7V5C7 3.34315 8.34315 2 10 2H20C21.6569 2 23 3.34315 23 5V7" stroke="#252525" stroke-width="2" fill="transparent"/>
    </symbol>
    <symbol id="heart" viewBox="0 0 30 30">
        <path fill="transparent" stroke="#252525" d="M15 28.2956L13.3222 26.6309L13.3215 26.6302C9.70734 23.0582 6.74543 20.1266 4.68126 17.3741C2.62355 14.6303 1.5 12.1178 1.5 9.39237C1.5 4.91275 4.70323 1.5 8.7 1.5C10.9681 1.5 13.1666 2.65372 14.6072 4.48318L15 4.98203L15.3928 4.48318C16.8334 2.65372 19.0319 1.5 21.3 1.5C25.2968 1.5 28.5 4.91275 28.5 9.39237C28.5 12.1178 27.3764 14.6303 25.3187 17.3741C23.2546 20.1266 20.2927 23.0582 16.6785 26.6302L16.6778 26.6309L15 28.2956Z"/>
    </symbol>
    <symbol id="search" viewBox="0 0 30 30">
        <circle cx="12" cy="12" r="10" stroke="#252525" fill="transparent" stroke-width="2"/>
        <path d="M27 28L19 20" stroke="#252525" fill="transparent" stroke-width="2" stroke-linecap="square"/>
    </symbol>
    <symbol id="user" viewBox="0 0 30 30">
        <path fill="transparent" d="M27.988 27.2828C27.9792 27.5496 27.9664 27.7908 27.9524 28H2.0476C2.03364 27.7908 2.02079 27.5496 2.01197 27.2828C1.9796 26.3039 2.0023 25.0019 2.21408 23.6773C2.65165 20.9405 3.79393 18.5912 6.36212 18.1088C7.81748 17.8355 8.94675 18.1145 10.2455 18.5244C10.3836 18.568 10.5244 18.6134 10.6679 18.6598C11.8652 19.0461 13.2599 19.4961 15 19.4961C16.7401 19.4961 18.1348 19.0461 19.3321 18.6598C19.4756 18.6134 19.6164 18.568 19.7545 18.5244C21.0533 18.1145 22.1825 17.8355 23.6379 18.1088C26.2061 18.5912 27.3484 20.9405 27.7859 23.6773C27.9977 25.0019 28.0204 26.3039 27.988 27.2828Z" stroke="#252525" stroke-width="2"/>
        <circle cx="15" cy="9" r="7" stroke="#252525" fill="transparent" stroke-width="2"/>
    </symbol>


</svg>